{"title":"Ce Vieux Reve Qui Bouge (Alain Guiraudie, 2001)","uid":9310130,"size":535819622,"categoryP":"video","categoryS":"movies","magnet":"?xt=urn:btih:2ae69b01029715608b76da7bd26bd99d5e9682b8&amp;dn=Ce+Vieux+Reve+Qui+Bouge+%28Alain+Guiraudie%2C+2001%29&amp;tr=udp%3A%2F%2Ftracker.openbittorrent.com%3A80&amp;tr=udp%3A%2F%2Fopen.demonii.com%3A1337&amp;tr=udp%3A%2F%2Ftracker.coppersurfer.tk%3A6969&amp;tr=udp%3A%2F%2Fexodus.desync.com%3A6969","seeders":1,"leechers":0,"uploader":"tonioferah","files":2,"time":1386393009,"description":"A worker arrives at a factory in order to repair a machine before it is transported in director Alain Guiraudie's low-key drama. With only half-dozen employees whose future employment remains in question, the new worker experiences an intense attraction to his elusive but alluring boss as his drab surrounding result in a strong bond among the hapless workers. With uncompromised, low-key eroticism fueling a sincere study in generational gaps and homosexual relationships, the mechanic gradually learns to function despite the delicate relationship with his boss and feelings of inability to take hold of one's own fate.\n\n__________________________________\n\n\n\nGeneral\nComplete name                    : Ce vieux reve qui bougeAlain Guiraudie - Ce vieux reve qui bouge.avi\nFormat                           : AVI\nFormat/Info                      : Audio Video Interleave\nFile size                        : 511 MiB\nDuration                         : 49mn 2s\nOverall bit rate                 : 1 457 Kbps\nWriting application              : VirtualDubMod 1.5.10.2 (build 2540/release)\nWriting library                  : VirtualDubMod build 2540/release\n\nVideo\nID                               : 0\nFormat                           : MPEG-4 Visual\nFormat profile                   : Advanced Simple@L5\nFormat settings, BVOP            : Yes\nFormat settings, QPel            : No\nFormat settings, GMC             : No warppoints\nFormat settings, Matrix          : Default (MPEG)\nCodec ID                         : XVID\nCodec ID/Hint                    : XviD\nDuration                         : 49mn 2s\nBit rate                         : 1 351 Kbps\nWidth                            : 640 pixels\nHeight                           : 480 pixels\nDisplay aspect ratio             : 4:3\nFrame rate                       : 25.000 fps\nColor space                      : YUV\nChroma subsampling               : 4:2:0\nBit depth                        : 8 bits\nScan type                        : Progressive\nCompression mode                 : Lossy\nBits/(Pixel*Frame)               : 0.176\nStream size                      : 474 MiB (93%)\nWriting library                  : XviD 1.1.2 (UTC 2006-11-01)\n\nAudio\nID                               : 1\nFormat                           : MPEG Audio\nFormat version                   : Version 1\nFormat profile                   : Layer 3\nMode                             : Joint stereo\nMode extension                   : MS Stereo\nCodec ID                         : 55\nCodec ID/Hint                    : MP3\nDuration                         : 49mn 1s\nBit rate mode                    : Variable\nBit rate                         : 93.0 Kbps\nMinimum bit rate                 : 32.0 Kbps\nChannel(s)                       : 2 channels\nSampling rate                    : 48.0 KHz\nCompression mode                 : Lossy\nStream size                      : 32.6 MiB (6%)\nAlignment                        : Aligned on interleaves\nInterleave, duration             : 24 ms (0.60 video frame)\nInterleave, preload duration     : 198 ms\nWriting library                  : LAME3.97b\nEncoding settings                : -m j -V 4 -q 3 -lowpass 17.5 --vbr-new -b 32\n","torrent":{"xt":"urn:btih:2ae69b01029715608b76da7bd26bd99d5e9682b8","amp;dn":"Ce+Vieux+Reve+Qui+Bouge+%28Alain+Guiraudie%2C+2001%29","amp;tr":["udp%3A%2F%2Ftracker.openbittorrent.com%3A80","udp%3A%2F%2Fopen.demonii.com%3A1337","udp%3A%2F%2Ftracker.coppersurfer.tk%3A6969","udp%3A%2F%2Fexodus.desync.com%3A6969"],"infoHash":"2ae69b01029715608b76da7bd26bd99d5e9682b8","infoHashBuffer":{"type":"Buffer","data":[42,230,155,1,2,151,21,96,139,118,218,123,210,107,217,157,94,150,130,184]},"announce":[],"urlList":[]}}